<?xml version="1.0" encoding="UTF-8"?>
<!DOCTYPE svg PUBLIC "-//W3C//DTD SVG 1.1//EN" "http://www.w3.org/Graphics/SVG/1.1/DTD/svg11.dtd">
<!-- Creator: CorelDRAW -->
<svg xmlns="http://www.w3.org/2000/svg" xml:space="preserve" width="241.032mm" height="83.678mm" version="1.1" style="shape-rendering:geometricPrecision; text-rendering:geometricPrecision; image-rendering:optimizeQuality; fill-rule:evenodd; clip-rule:evenodd"
viewBox="0 0 24103.2 8367.8"
 xmlns:xlink="http://www.w3.org/1999/xlink"
 xmlns:xodm="http://www.corel.com/coreldraw/odm/2003">
 <defs>
  <style type="text/css">
   <![CDATA[
    .fil3 {fill:#F6DBC8}
    .fil0 {fill:#F6DBC8}
    .fil2 {fill:#343434;fill-rule:nonzero}
    .fil1 {fill:#5361A4;fill-rule:nonzero}
    .fil5 {fill:#343434;fill-rule:nonzero}
    .fil4 {fill:#5361A4;fill-rule:nonzero}
   ]]>
  </style>
 </defs>
 <g id="Layer_x0020_1">
  <metadata id="CorelCorpID_0Corel-Layer"/>
  <rect class="fil0" transform="matrix(2.14937E-14 -0.398465 0.811556 1.05532E-14 -4.93 8374.88)" width="21000" height="29700"/>
  <g id="_1841691004496">
   <path class="fil1" d="M3372.5 2625.55c-229.62,0 -459.21,-2.01 -688.83,0.63 -211.79,2.3 -405.53,166.38 -431.59,374.55 -25.35,201.01 -10.36,403.94 -8.23,606.09 0.42,42.88 20.68,57.87 63.77,57.63 416.06,-1.25 832.12,-0.62 1248.18,-1.13 76.43,-0.12 140.41,-29.57 194.55,-84.36 69.9,-70.75 118.77,-154.57 160.91,-243.24 98.9,-208.28 151.36,-432.22 219.89,-650.86 17.84,-57.22 -14.66,-59.43 -56.17,-59.31 -234.14,0.42 -468.31,0.21 -702.48,0zm1661.19 -1174.71c-106,347.11 -214.09,693.5 -317.46,1041.36 -89.21,300.24 -171.44,602.62 -282.29,895.98 -61.47,162.5 -140.74,315.03 -247.46,452.6 -51.86,66.82 -111.71,125.63 -180.54,174.91 -77.06,55.13 -77.69,55.13 -23.76,130.3 290.22,404.24 580.56,808.15 870.75,1212.27 9.31,12.9 17.96,26.09 28.1,40.76 -6.55,4.1 -11.73,10.23 -16.99,10.23 -202.27,0.75 -404.57,-0.21 -606.84,2.01 -39.59,0.42 -55.3,-23.22 -74.52,-48.87 -283.99,-380.6 -568.95,-760.45 -851.45,-1141.97 -31.87,-42.98 -64.73,-59.55 -118.14,-59.02 -297.71,2.85 -595.53,3.39 -893.23,0.72 -58.18,-0.51 -71.05,17.66 -70.75,72.96 2.13,368.12 -0.5,736.27 1.92,1104.39 0.42,58.17 -17.63,72.33 -72.84,70.74 -129.43,-3.8 -259.19,-3.29 -388.62,-0.12 -48.03,1.17 -61.35,-13.29 -61.14,-61.11 2.13,-370.36 0.12,-740.81 3.18,-1111.15 0.41,-59.76 -14.25,-77.5 -75.18,-75.92 -174.91,4.76 -349.95,2.67 -524.9,3.17l0 -490.99c188.57,0.42 377.1,-0.33 565.66,2.22 46.24,0.62 51.62,-22.18 51.2,-58.72 -1.46,-136.28 -2.21,-272.59 -2,-408.88 0.21,-143.25 1.68,-286.63 46.23,-424.91 126.92,-394.55 502.94,-664.69 919.66,-663.85 508.95,0.96 1017.9,0.21 1526.96,-0.3 29.57,0 61.89,10.03 75.18,-36.45 60.51,-211.33 124.46,-421.65 187.18,-632.36l532.09 0z"/>
   <path class="fil1" d="M22961.8 5406.35c-25.02,0.93 -49.92,2.72 -74.94,2.72 -716.21,0.21 -1432.4,-0.51 -2148.62,1.5 -56.8,0.21 -71.13,-14.69 -71.13,-71.16 1.68,-1172.92 1.68,-2345.8 0.09,-3518.6 -0.09,-56.71 9.19,-76.76 72.63,-76.55 704.81,2.63 1409.72,2.34 2114.5,0.54 57.64,-0.21 79.49,10.65 77.18,73.8 -5.18,140.71 -4.22,281.87 -0.21,422.7 1.68,56.05 -18.16,67.36 -70,67.15 -484.38,-1.7 -968.61,0.09 -1452.87,-2.45 -62.72,-0.42 -80.56,16.28 -79.72,79.18 3.5,254.55 2.96,509.07 0.21,763.71 -0.51,52.16 15.62,64.52 65.66,64.19 413.75,-1.79 827.6,-0.21 1241.44,-2.09 51.62,-0.33 71.26,9.9 69.46,66.7 -4.43,140.74 -4.43,281.87 0,422.71 1.89,58.92 -18.37,70.32 -73.17,70.11 -409.29,-2.33 -818.59,0 -1227.8,-2.84 -60.81,-0.33 -76.31,16.55 -75.68,76.22 2.84,309.1 3.05,618.21 -0.12,927.34 -0.75,62.4 20.17,74.94 78.02,74.73 488.81,-2.1 977.71,-1.26 1466.52,-1.17 29.53,0 59.01,1.5 88.55,2.34l0 559.22z"/>
   <path class="fil1" d="M10273.05 2880.94c0,172.61 1.37,345.1 -0.96,517.59 -0.51,43.73 10.77,59.35 56.5,57.76 95.22,-3.38 190.75,-0.33 286.09,-1.38 173.45,-1.79 345.44,-18.37 508.65,-80.44 321.97,-122.57 416.9,-359.26 346.27,-660.34 -45.39,-194.04 -200.38,-281.99 -377.96,-335.95 -247.46,-75.14 -502.61,-64.49 -756.74,-67.66 -53.5,-0.63 -63.77,17.54 -62.9,66.4 2.84,167.98 1.05,336.04 1.05,504.02zm-680.85 711.42c-0.09,-581.91 0.75,-1163.81 -1.37,-1745.6 -0.21,-55.96 13.11,-73.38 70.95,-72.21 418.07,8.02 836.67,-13.11 1254.61,16.46 289.6,20.38 566.08,85.28 810.28,251.13 243.02,165.13 401.81,391.04 440.33,683.18 60.39,458.91 -152.99,842.44 -565.45,1054.77 -266.34,137.12 -552.55,191.28 -847.62,206.91 -133.77,7.18 -268.38,7.72 -402.24,2.54 -69.16,-2.75 -80.65,20.8 -80.23,83.91 2.96,422.82 0.63,845.65 2.75,1268.35 0.3,52.7 -12.26,69.79 -67.15,68.83 -184.1,-3.47 -368.33,-3.38 -552.46,0 -52.88,0.96 -63.56,-16.37 -63.44,-65.87 1.67,-584.12 1.04,-1168.24 1.04,-1752.4z"/>
   <path class="fil1" d="M19488.24 2758.51c-111.08,-98.4 -213.16,-181.8 -329.3,-244.82 -494.59,-268.89 -997.01,-267.96 -1471.04,24.06 -355.76,219.17 -542.41,563.35 -551.08,993.86 -8.44,416.36 124.79,766.88 456.81,1029.42 270.38,213.88 584.25,285.17 921.75,265.54 385.03,-22.51 712.51,-184.35 1004.61,-427.17 21.04,-17.41 41.72,-35.16 62.73,-52.46 3.38,-2.75 7.81,-4.33 21.63,-11.61 0,39.06 1.71,73.47 -0.3,107.8 -11.61,197.21 -25.01,394.39 -35.49,591.6 -1.79,33.49 -12.87,52.58 -41.48,70.21 -742.49,454.81 -1762.09,400.76 -2434.5,-139.88 -470.52,-378.26 -677.88,-878.47 -652.95,-1479.47 37.47,-902.66 763.08,-1551.06 1568.06,-1678.39 514.03,-81.4 1004.61,-14.58 1465.77,238.89 67.78,37.29 84.24,75.72 74.21,149.6 -24.6,181.38 -39.17,364.14 -59.43,562.82z"/>
   <path class="fil1" d="M6108.92 4545.02c68.74,35.14 138.41,71.8 208.92,106.63 250.41,123.29 509.27,218.64 792.01,230.88 179.8,7.81 353.88,-12.99 512.87,-106.63 257.48,-151.81 305.93,-471.6 103.13,-691.91 -115.58,-125.63 -262.12,-208.95 -409.39,-290.64 -222.35,-123.33 -453.56,-231.09 -663.22,-376.8 -102.91,-71.58 -202.06,-148.1 -281.96,-245.33 -340.16,-413.01 -222.56,-984.68 255.57,-1255.78 180,-101.99 374.67,-150.86 578.53,-163.97 363.93,-23.22 715.25,34 1053.51,172.62 48.9,20.05 70.2,41.17 65.77,98.27 -10.86,138.11 -15.32,276.73 -17.32,415.22 -0.84,53.84 -15.62,55.43 -58.81,34.96 -205.53,-97.77 -415.94,-182.64 -641.22,-223.82 -186.44,-33.99 -371.2,-33.78 -548.24,44.35 -262.57,115.7 -310.9,410.76 -100.19,606.39 114.43,106.21 250.63,180 387.45,251.8 231.2,121.41 467.8,233.3 680.84,386.7 114.65,82.56 221.9,173.15 310.69,284.29 303,379.55 265.71,982.14 -187.69,1322.1 -222.77,167.02 -478.46,238.15 -749.59,258.02 -406.24,29.66 -802.34,-22.18 -1184.19,-170.1 -41.81,-16.13 -60.6,-38 -64.4,-82.65 -15.92,-187.49 -34.93,-374.77 -52.34,-562.07 -1.17,-12.78 -5.39,-26.82 9.27,-42.53z"/>
   <path class="fil1" d="M15952.38 5409.01c-224.65,0 -449.22,-0.74 -673.75,0.63 -41.09,0.3 -46.36,-30.19 -58.6,-55.42 -195.74,-402.03 -391.16,-804.05 -586.36,-1206.16 -176.42,-363.48 -352.5,-727.08 -528.91,-1090.47 -12.87,-26.4 -27.45,-51.92 -41.9,-79.16 -27.35,12.66 -31.36,38.85 -41.6,59.44 -381.22,765.71 -762.54,1531.42 -1141.76,2298.06 -26.18,52.91 -53.63,76.88 -116.98,75.3 -199.63,-5.18 -399.48,-1.92 -611.06,-1.92 51.96,-100.19 99.03,-192.12 147.18,-283.54 532.92,-1012.04 1065.96,-2023.83 1599,-3035.75 46.53,-88.34 92.89,-176.83 139.87,-265.08 11.31,-21.22 16.67,-47.94 49.41,-49.62 36.75,-1.88 43.72,27.15 55.63,50.58 320,629.19 639.88,1258.5 959.67,1887.93 275.64,542.44 551.17,1084.88 826.4,1627.49 10.02,19.63 26.06,37.5 23.76,67.69z"/>
   <path class="fil2" d="M19304.14 6396.63c68.08,1.88 135.95,4.93 200.47,31.03 34.62,14.04 66.61,31.87 83.61,65.87 7.18,14.36 24.6,35.37 6.98,48.99 -17.66,13.73 -49.83,17.32 -61.68,-3.06 -45.07,-77.71 -122.46,-68.53 -192.66,-77.09 -52.17,-6.31 -104.92,-1.25 -156.04,10.15 -43.81,9.81 -97.56,18.79 -95.01,78.23 2.42,55.42 54.58,62.3 96.72,67.57 65.24,8.35 131.31,11.19 197.09,14.87 48.03,2.75 95.01,10.06 139.45,27.98 47.62,19.33 79.19,53 82.57,106.54 3.26,54.16 -24.51,94.68 -70.54,114.22 -153.28,64.82 -308.35,65.66 -461.54,-2.54 -27.24,-12.15 -48.66,-33.58 -60.06,-62.6 -6.47,-16.58 -19.01,-37.26 1.04,-48.45 18.47,-10.36 41.27,-13.83 60.81,8.02 80.11,90.04 309.11,120.36 413.94,55.96 22.29,-13.74 39.8,-31.48 38.21,-59.85 -1.67,-31.49 -22.05,-48.78 -50.24,-57.34 -72.63,-22.18 -148.02,-21.97 -222.77,-25.14 -54.88,-2.21 -108.63,-8.53 -159.83,-28.82 -50.55,-20.05 -83.92,-55.3 -85.08,-112.01 -1.17,-53.93 30.73,-88.04 75.92,-111.68 68.62,-36.01 143.55,-39.18 218.64,-40.85z"/>
   <path class="fil2" d="M18597.95 6468.15c-47.2,0 -85.74,0.66 -124.17,-0.21 -24.6,-0.51 -48.57,0.54 -42.34,34.21 10.23,56.17 -33.37,150.43 23.76,162.58 100.28,21.34 211.37,22.27 314.82,-12.24 41.39,-13.82 70,-40.76 69.67,-89.21 -0.42,-50.57 -34.42,-70.41 -75.27,-83.52 -57.33,-18.25 -116.65,-9.4 -166.47,-11.61zm319.87 447.12c-60.81,19.01 -96.18,-1.79 -120.69,-46.98 -55.3,-101.99 -131.43,-153.52 -256.64,-137.78 -108.21,13.5 -107.35,2.84 -111.27,113.48 -0.95,25.88 30.41,73.17 -31.66,77.72 -29.45,2.09 -45.81,-3.8 -45.4,-39.72 1.8,-147.68 0.96,-295.36 0.84,-443.08 0,-19 -0.42,-38.09 26.52,-36.96 129.1,5.39 259.07,-13.91 387.33,11.73 69.66,13.83 131.55,40.97 145.17,122.04 13.7,81.82 -11.61,127.22 -105.49,175.25 -30.08,15.41 -22.89,25.35 -8.86,43.72 20.8,27.02 41.06,54.38 61.44,81.61 18.7,25.11 37.38,50.33 58.71,78.97z"/>
   <path class="fil2" d="M6606.68 6468.15c-49.71,0 -90.59,-0.33 -131.43,0.21 -14.67,0.21 -36.1,-5.93 -36.63,18.04 -1.38,56.68 -0.33,113.39 0.41,170.07 0.12,10.69 8.77,15.62 18.68,15.21 108.12,-4.52 218.01,16.69 323.8,-21.22 42.13,-15.08 69.36,-44.11 66.31,-91.84 -2.87,-45.49 -35.07,-65.78 -74.12,-78.44 -57.55,-18.79 -117.07,-9.52 -167.02,-12.03zm178.33 257.81c48.33,65.12 92.47,124.67 139.45,188 -52.28,18.07 -90.7,8.34 -114.22,-38.64 -59.89,-120.03 -154.36,-158.76 -286.75,-145.35 -67.25,6.73 -99.33,16.88 -87,88.97 3.71,22.09 -0.84,45.4 0.96,67.9 2,27.03 -8.98,35.88 -35.25,35.17 -23.23,-0.54 -38.55,-2.55 -38.34,-32.2 0.96,-151.94 0.63,-303.84 0.33,-455.87 -0.12,-22.08 6.97,-33.15 31.03,-32.32 120.04,4.13 240.91,-11.61 359.89,7.93 111.27,18.17 164.38,68.51 171.24,145.8 6.13,68.5 -38.1,123.51 -141.34,170.61z"/>
   <path class="fil2" d="M16356.26 6921.08c-77.15,0 -154.45,-1.5 -231.6,0.72 -32.95,0.95 -42.25,-9.49 -41.92,-42.02 1.67,-145.38 1.58,-290.64 0.12,-435.9 -0.33,-31.45 6.94,-43.27 40.93,-42.97 156.7,1.79 313.45,0.95 470.11,0.62 21.88,-0.08 38.54,-0.71 38.45,30.62 -0.12,32.62 -15.2,36.54 -41.92,36.33 -122.58,-0.84 -245.45,4.43 -367.7,-2.22 -67.45,-3.8 -69.04,25.23 -72,78.02 -3.59,63.03 23.34,69.04 74.75,67.36 102.08,-3.5 204.37,-1.16 306.56,-1.07 24.3,0.12 51.12,-6.02 51.54,34.2 0.41,44.47 -31.25,30.41 -52.49,30.62 -106.72,1.16 -213.56,2.12 -320.18,-0.3 -41.09,-0.84 -59.88,5.68 -59.43,54.25 1.13,128.38 -1.5,128.38 128.56,128.38 102.19,0 204.39,0 306.59,0.09 22.38,0 44.86,-4.63 45.72,32 0.72,37.91 -22.8,31.15 -44.47,31.15 -77.14,0.21 -154.44,0.12 -231.62,0.12z"/>
   <path class="fil2" d="M15253.67 6841.12c0,-137.87 -0.42,-259.49 0.33,-381.02 0.09,-26.39 -13.41,-59.64 38.21,-59.64 51.21,0.12 38.73,32.83 38.85,59.64 0.75,131.76 1.26,263.62 -0.42,395.38 -0.33,21.73 16.88,57.01 -17.42,63.53 -33.28,6.26 -69.58,11.64 -99.98,-22.56 -104.2,-117.19 -211.37,-231.54 -317.57,-346.93 -18.14,-19.84 -36.63,-39.38 -55.22,-59.31 -26.69,18.58 -15.83,43.48 -16.04,63.95 -1.25,106.86 -0.74,213.7 -0.21,320.53 0.12,26.07 2.64,48.87 -36.95,47.91 -38.1,-1.04 -30.41,-25.22 -30.5,-46.44 -0.21,-134.07 -1.17,-268.26 0.84,-402.23 0.42,-23.74 -19,-60.69 17.09,-70.09 33.9,-8.86 69.07,-5.6 98.18,27.77 70.21,80.44 144.63,157.2 217.5,235.22 50.34,53.92 100.91,107.76 163.31,174.29z"/>
   <path class="fil2" d="M14067.74 6842.79c0,-141.76 -0.51,-263.71 0.45,-385.74 0.21,-23.76 -13.65,-55.34 34.29,-56.47 51.41,-1.17 39.17,32.29 39.26,59.1 0.66,131.76 1.17,263.5 -0.5,395.26 -0.21,22.06 16.36,57.43 -16.91,64.31 -30.5,6.32 -64.7,10.96 -93.52,-21.25 -99.68,-111.89 -202.6,-220.85 -304.38,-330.95 -22.89,-24.8 -45.69,-49.82 -70.29,-76.64 -22.6,24.39 -12.06,50.34 -12.36,73.35 -1.38,106.75 -1.59,213.49 -0.12,320.33 0.42,29.87 -9.28,38.72 -38.52,38.42 -28.1,-0.21 -33.78,-11.73 -33.69,-36.63 0.75,-149.92 0.21,-299.82 0.42,-449.84 0.12,-14.78 -4.73,-34.42 20.58,-33.91 32.95,0.66 64.53,-5.8 92.92,25.98 102.83,115.18 209.25,227.11 314.29,340.38 18.25,19.75 36.42,39.68 68.08,74.3z"/>
   <path class="fil2" d="M16978.69 6468.12c-40.76,0 -81.61,1.68 -122.25,-0.54 -33.46,-1.79 -48.36,12.99 -41.39,43.69 12.15,53.12 -36,141.49 26.61,154.57 96.6,20.26 203.13,18.91 302.79,-9.19 45.18,-12.78 83.19,-40.73 81.07,-95.52 -2.01,-52.28 -40.97,-72.66 -84.46,-84.06 -53.2,-14.04 -108.12,-7.81 -162.37,-8.95zm322.84 446.76c-55.75,18.05 -89.51,1.38 -118.24,-42.64 -55.75,-85.83 -111.05,-160.79 -240.39,-142.75 -125.42,17.54 -126.47,3.8 -129.22,131.35 -0.51,22.05 19.21,58.47 -28.82,61.02 -27.86,1.37 -45.91,-0.12 -45.4,-37.8 2.12,-147.48 0.96,-294.98 0.84,-442.45 0,-21.1 -2.43,-41.48 29.56,-40.02 126.59,6.14 254.22,-13.28 380.06,11.95 89.96,17.92 141.16,63.11 150.02,126.67 10.36,74.55 -20.17,127.96 -106.3,169.65 -31.9,15.41 -27.44,24.93 -10.14,47.19 40.13,51.21 78.02,104.12 118.03,157.83z"/>
   <path class="fil2" d="M7336.63 6863.02c127.19,-0.21 207.75,-50.03 234.98,-145.26 33.49,-116.98 -22.89,-216 -139.46,-244.61 -163.63,-40.31 -311.31,17.83 -337.08,133.14 -2.01,8.77 -2.12,17.95 -2.63,27.02 -9.94,148.1 77.26,230.04 244.19,229.71zm10.24 -467.68c28.19,3.8 67.24,5.18 104.29,14.48 138.08,34.51 208.82,120.13 208.4,247.55 -0.54,132.06 -73.26,222.98 -208.49,257.06 -75.92,19.13 -153.19,19.13 -229.2,1.38 -143.26,-33.25 -216.13,-133.11 -209.16,-282.5 5.6,-120.99 98.31,-212.41 235.64,-231 29.15,-3.89 58.8,-4.22 98.52,-6.97z"/>
   <path class="fil2" d="M17922.97 6863.14c165.76,0.63 262.78,-92.47 245.69,-235.75 -12.15,-101.33 -93.76,-159.72 -231,-165.32 -140.53,-5.71 -237.13,51.3 -255.81,151.07 -28.07,149.18 68.62,249.37 241.12,250zm-0.42 -466.72c40.34,4.52 80.98,2.63 121.11,13.7 135.86,37.71 199.22,114.02 199.84,244.74 0.72,137.87 -65.03,223.69 -201.64,258.95 -77.92,20.17 -157.2,20.17 -235.21,0.74 -138.53,-34.53 -215.05,-136.73 -206.4,-271.63 8.65,-133.77 98.27,-223.82 240.9,-241.03 26.93,-3.17 54.17,-3.68 81.4,-5.47z"/>
   <path class="fil2" d="M10515.75 6862.93c7.69,-0.42 25.94,-0.42 43.9,-2.84 123.74,-17 194.37,-92.38 193.08,-205.35 -1.14,-107.59 -66.29,-170.82 -192.24,-188.77 -52.55,-7.49 -104.51,-4.31 -155.41,8.14 -89.63,21.84 -142.42,86.66 -143.88,172.7 -2.55,138.52 85.94,216.87 254.55,216.12zm-9.61 -466.84c44.95,4.43 89.93,4.43 134.16,17.83 139.78,42.14 187.51,125.96 188.23,241.24 0.66,119.19 -50.03,214.62 -190.96,254.64 -80.56,22.92 -161.54,24.51 -241.89,6.85 -151.78,-33.13 -217.56,-131.53 -206.78,-301.38 7.06,-111.39 102.28,-197.96 235.84,-213.5 27.02,-3.14 54.26,-3.8 81.4,-5.68z"/>
   <path class="fil2" d="M11969.13 6397.23c73.37,0.65 144.54,10.26 210.73,44.67 39.9,20.8 70.75,50.04 84.25,93.52 5.5,17.63 16.45,44.35 -14.88,48.03 -17.53,2.13 -45.4,17 -53.95,-20.47 -10.15,-44.14 -45.61,-66.49 -86.04,-78.85 -95.64,-29.45 -192.15,-32.62 -287.59,1.05 -73.68,25.97 -114.11,79.39 -119.4,157.74 -5.6,84.87 24.3,154.32 103.9,189.37 101.87,44.89 207.75,42.34 311.65,3.17 37.55,-14.04 68.2,-41.18 76.31,-80.86 8.56,-42.14 38.75,-27.35 57.64,-23.55 28.1,5.59 18.07,32.2 12.27,50.15 -18.92,58.39 -61.68,93.43 -117.4,114.56 -98.52,37.35 -200.6,40.31 -301.63,19.84 -150.97,-30.73 -229.62,-133.98 -221.39,-279.24 6.97,-122.57 108.42,-218.01 250.3,-234.17 31.57,-3.47 63.47,-3.38 95.23,-4.96z"/>
   <path class="fil2" d="M12957.4 6666.32c0,70.41 -0.21,140.83 0.21,211.25 0.09,23.85 1.46,44.02 -33.58,44.97 -35.16,0.93 -34.32,-18.28 -34,-42.55 0.75,-52.25 -1.25,-104.62 0.84,-156.78 1.38,-33.25 -5.68,-48.87 -44.11,-48.15 -115.81,2.33 -231.83,2.54 -347.65,-0.09 -38.96,-0.84 -44.68,14.99 -43.39,47.82 2.22,54.37 -0.33,108.96 1.05,163.54 0.54,24.6 -4.43,37.26 -33.16,35.88 -25.65,-1.16 -42.31,-2.42 -42.02,-35.79 1.5,-149.9 1.38,-299.91 0,-449.84 -0.29,-33.58 16.91,-34.21 42.23,-35.46 29.24,-1.59 34.95,12.15 32.62,36.3 -0.72,6.76 -0.09,13.64 -0.09,20.5 1.47,151.39 1.47,151.39 156.24,151.27 77.27,0 154.57,-1.47 231.72,0.75 35.16,0.96 48.99,-9.4 46.68,-45.94 -2.87,-42.97 0,-86.24 -0.63,-129.43 -0.33,-20.8 2.43,-34.5 29.03,-33.45 23.94,0.95 38.64,4.96 38.31,33.45 -1.05,77.3 -0.3,154.45 -0.3,231.75z"/>
   <path class="fil2" d="M8576.76 6756.22c-54.05,-101.78 -101.99,-192.04 -153.49,-288.97 -47.73,89.54 -92.08,172.7 -136.52,255.81 -16.46,30.61 0.84,33.46 25.55,33.37 83.5,-0.54 167.02,-0.21 264.46,-0.21zm160.67 158.54c-54.04,18.5 -85.5,1.17 -100.4,-45.18 -12.78,-39.6 -39.38,-47.92 -78.11,-46.87 -90.79,2.55 -181.8,2.75 -272.59,-0.09 -38.96,-1.17 -61.65,9.91 -78.56,46.45 -25.31,55 -28.07,53.71 -97.73,46.86 86.99,-165.76 172.28,-330.32 260.11,-493.54 20.05,-37.37 89,-31.69 110.34,8.23 85.62,159.42 169.86,319.55 256.94,484.14z"/>
   <path class="fil2" d="M5702.44 6466.53c-54.5,103.04 -101.57,191.92 -151.6,286.51l302.67 0c-49.74,-94.26 -97.23,-184.43 -151.07,-286.51zm313.65 448.14c-55.96,19.22 -85.2,-1.04 -100.4,-47.19 -11.61,-35.37 -35.16,-46.03 -72.63,-44.86 -90.79,2.96 -181.8,3.17 -272.5,0 -41.69,-1.46 -66.5,9.94 -84.66,49.08 -25.02,53.96 -27.98,52.58 -96.49,42.23 86.13,-163.22 170.91,-325.57 257.91,-486.9 22.92,-42.52 90.04,-39.05 113.71,5.18 85.29,159.53 169.24,319.79 255.06,482.46z"/>
   <path class="fil2" d="M11516.62 6579.47c0,18.17 -0.84,36.42 0.21,54.47 6.55,108.54 -13.29,207.89 -122.46,257.39 -124.67,56.47 -251.8,55.75 -370.03,-20.68 -68.29,-44.23 -91.01,-116.56 -94.6,-193.32 -3.56,-77.06 0.12,-154.45 -1.26,-231.62 -0.53,-29.24 3.06,-45.61 39.39,-45.19 33.87,0.45 42.01,12.27 41.26,43.72 -1.88,77.18 -1.25,154.45 -0.41,231.63 1.07,96.6 49.52,156.15 144.21,179.16 181.38,44.02 294.65,-43.51 294.98,-227.82 0.09,-61.35 0.72,-122.7 -0.33,-183.93 -0.42,-25.76 2.12,-42.1 35.49,-42.64 35.25,-0.63 34.21,18.16 33.76,42.55 -0.84,45.4 -0.21,90.89 -0.21,136.28z"/>
   <path class="fil2" d="M15715.25 6401.68c72.63,0 145.26,0.12 217.89,0 22.59,-0.09 44.98,-4.51 43.3,32.41 -1.5,34.63 -22.18,33.58 -45.85,33.49 -47.61,-0.21 -95.43,2.01 -142.92,-0.87 -35.7,-2 -46.78,9.73 -46.15,45.73 2.01,120.24 -0.09,240.48 1.29,360.73 0.42,32.2 -3.59,49.61 -43.1,49.31 -39.38,-0.41 -36.62,-22.05 -36.5,-48.15 0.41,-118.02 -1.38,-236.05 1.04,-353.96 0.84,-40.04 -7.3,-57.97 -51.62,-53.87 -45.1,4.13 -90.79,-0.3 -136.1,1.29 -25.95,0.93 -36.09,-7.72 -37.26,-34.32 -1.17,-29.87 14.04,-32.41 37.71,-32.08 79.36,0.83 158.87,0.29 238.27,0.29z"/>
   <path class="fil2" d="M7942.9 6689.18c60.18,-85.74 115.51,-165.13 171.36,-243.98 33.15,-46.87 33.57,-46.57 107.04,-36.3 -56.05,80.11 -107.46,159.83 -165.43,234.47 -53.42,68.71 -90.59,139.12 -75.26,229.62 3.8,22.68 8.94,48.75 -33.28,49.49 -44.23,0.84 -42.65,-24.59 -38.64,-51.83 12.24,-82.23 -17.62,-147.89 -67.66,-211.87 -62.51,-79.61 -116.98,-165.43 -175.78,-249.88 57.13,-20.29 87.53,1.13 115.27,45.15 49.32,78.26 104.86,152.57 162.38,235.13z"/>
   <path class="fil2" d="M8825.92 6654.41c0,-70.42 0.3,-140.83 -0.24,-211.25 -0.09,-23.88 -2.09,-42.67 33.58,-42.76 35.7,-0.12 40.01,14.66 39.59,44.56 -1.37,113.48 3.8,227.28 -2.42,340.55 -3.47,64.1 19.75,76.14 76.85,73.38 93.01,-4.34 186.35,-1.26 279.45,-1.05 24.71,0 51.53,-4.63 50.78,35.38 -0.63,40.01 -29.45,27.11 -48.57,27.32 -127.22,0.96 -254.52,-1.05 -381.62,1.5 -39.59,0.71 -49.73,-11.94 -48.27,-49.62 2.88,-72.54 0.87,-145.38 0.87,-218.01z"/>
   <path class="fil2" d="M9873.69 6401.68c75.05,0 150.02,0.12 225.07,-0.09 20.71,0 39.92,-3.38 39.8,29.45 -0.09,32.2 -14.87,37.59 -41.9,36.63 -40.87,-1.38 -82.14,2.84 -122.69,-1.05 -51.5,-4.96 -71.46,9.07 -69.04,65.66 4.88,113.39 1.59,227.2 1.5,340.89 -0.12,23.76 7.6,49.4 -34.33,49.1 -39.8,-0.2 -36.54,-22.29 -36.42,-48.24 0.33,-118.14 -1.79,-236.38 1.05,-354.53 1.08,-43.18 -13.08,-55.63 -54.26,-52.79 -47.49,3.18 -95.43,-0.21 -143.16,0.96 -26.4,0.63 -35.05,-9.4 -36.09,-35.79 -1.38,-32.2 17.2,-30.41 38.51,-30.29 77.3,0.3 154.69,0.09 231.96,0.09z"/>
   <path class="fil2" d="M17417.22 6654.41c-0.12,-70.12 0.21,-140.2 -0.24,-210.2 -0.21,-23.76 -2,-43.18 33.28,-43.6 34.83,-0.42 40.52,13.52 40.22,43.93 -1.17,144.63 -0.63,289.35 -0.33,433.98 0.12,23.85 1.8,43.19 -33.37,43.72 -35.04,0.63 -40.73,-13.73 -40.1,-44.02 1.68,-74.54 0.63,-149.18 0.54,-223.81z"/>
   <path class="fil2" d="M13429.51 6662.28c0,72.3 -0.45,144.63 0.21,216.93 0.21,24.6 0.21,42.26 -34.12,42.98 -36.54,0.86 -38.96,-16.25 -38.75,-44.98 0.96,-144.64 0.66,-289.27 0.21,-433.99 -0.09,-24.18 -1.35,-42.43 33.78,-42.76 36.12,-0.33 39.81,15.41 39.18,44.86 -1.59,72.21 -0.51,144.63 -0.51,216.96z"/>
   <path class="fil2" d="M14612.54 6667.99c0,68.12 0.42,136.2 -0.21,204.31 -0.21,22.8 9.81,50.03 -33.04,50.03 -37.59,0 -38.42,-18.16 -38.33,-46.23 0.95,-142.96 0.86,-286 0.12,-428.96 -0.12,-27.53 -0.21,-46.65 37.88,-46.65 42.56,-0.09 33.28,26.6 33.37,49.61 0.54,72.63 0.21,145.26 0.21,217.89z"/>
  </g>
  <g id="_1841691004640">
   <g id="_1564558910224">
    <rect class="fil3" transform="matrix(3.15916E-14 -1 1 2.22657E-14 53714.4 11383)" width="15674.95" height="26378.51"/>
    <g>
     <path class="fil4" d="M58229.52 1980.14c-229.62,0 -459.21,-2.01 -688.83,0.63 -211.79,2.3 -405.53,166.38 -431.59,374.55 -25.35,201.01 -10.36,403.94 -8.23,606.09 0.42,42.88 20.68,57.87 63.77,57.63 416.06,-1.25 832.12,-0.62 1248.18,-1.13 76.43,-0.12 140.41,-29.57 194.55,-84.36 69.9,-70.75 118.77,-154.57 160.91,-243.24 98.9,-208.28 151.36,-432.22 219.89,-650.86 17.84,-57.22 -14.66,-59.43 -56.17,-59.31 -234.14,0.42 -468.31,0.21 -702.48,0zm1661.19 -1174.71c-106,347.11 -214.09,693.5 -317.46,1041.36 -89.21,300.24 -171.44,602.62 -282.29,895.98 -61.47,162.5 -140.74,315.03 -247.46,452.6 -51.86,66.82 -111.71,125.63 -180.54,174.9 -77.06,55.13 -77.69,55.13 -23.76,130.3 290.22,404.24 580.56,808.15 870.75,1212.27 9.31,12.9 17.96,26.09 28.1,40.76 -6.55,4.1 -11.73,10.23 -16.99,10.23 -202.27,0.75 -404.57,-0.21 -606.84,2.01 -39.59,0.42 -55.3,-23.22 -74.52,-48.87 -283.99,-380.6 -568.95,-760.45 -851.45,-1141.97 -31.87,-42.98 -64.73,-59.55 -118.14,-59.02 -297.71,2.85 -595.53,3.39 -893.23,0.72 -58.18,-0.51 -71.05,17.66 -70.75,72.96 2.13,368.12 -0.5,736.27 1.92,1104.39 0.42,58.17 -17.63,72.33 -72.84,70.74 -129.43,-3.8 -259.19,-3.29 -388.62,-0.12 -48.03,1.17 -61.35,-13.29 -61.14,-61.11 2.13,-370.36 0.12,-740.81 3.18,-1111.15 0.41,-59.76 -14.25,-77.5 -75.18,-75.92 -174.91,4.76 -349.95,2.67 -524.9,3.17l0 -490.98c188.57,0.42 377.1,-0.33 565.66,2.22 46.24,0.62 51.62,-22.18 51.2,-58.72 -1.46,-136.28 -2.21,-272.59 -2,-408.88 0.21,-143.25 1.68,-286.63 46.23,-424.91 126.92,-394.55 502.94,-664.69 919.66,-663.85 508.95,0.96 1017.9,0.21 1526.96,-0.3 29.57,0 61.89,10.03 75.18,-36.45 60.51,-211.33 124.46,-421.65 187.18,-632.36l532.09 0z"/>
     <path class="fil4" d="M77818.8 4760.93c-25.02,0.93 -49.92,2.72 -74.94,2.72 -716.21,0.21 -1432.39,-0.51 -2148.61,1.5 -56.8,0.21 -71.13,-14.69 -71.13,-71.16 1.68,-1172.92 1.68,-2345.79 0.09,-3518.59 -0.09,-56.71 9.19,-76.76 72.63,-76.55 704.81,2.63 1409.71,2.34 2114.49,0.54 57.64,-0.21 79.49,10.65 77.18,73.8 -5.18,140.71 -4.22,281.87 -0.21,422.7 1.68,56.05 -18.16,67.36 -70,67.15 -484.38,-1.7 -968.61,0.09 -1452.86,-2.45 -62.72,-0.42 -80.56,16.28 -79.72,79.18 3.5,254.55 2.96,509.07 0.21,763.71 -0.51,52.16 15.62,64.52 65.66,64.19 413.74,-1.79 827.59,-0.21 1241.43,-2.09 51.62,-0.33 71.26,9.9 69.46,66.7 -4.43,140.74 -4.43,281.87 0,422.71 1.89,58.92 -18.37,70.32 -73.17,70.11 -409.29,-2.33 -818.59,0 -1227.79,-2.84 -60.81,-0.33 -76.31,16.55 -75.68,76.22 2.84,309.09 3.05,618.2 -0.12,927.33 -0.75,62.4 20.17,74.94 78.02,74.73 488.8,-2.1 977.7,-1.26 1466.51,-1.17 29.53,0 59.01,1.5 88.55,2.34l0 559.22z"/>
     <path class="fil4" d="M65130.06 2235.53c0,172.61 1.37,345.1 -0.96,517.59 -0.51,43.73 10.77,59.35 56.5,57.76 95.22,-3.38 190.75,-0.33 286.09,-1.38 173.45,-1.79 345.44,-18.37 508.65,-80.44 321.97,-122.57 416.9,-359.26 346.27,-660.34 -45.39,-194.04 -200.38,-281.99 -377.96,-335.95 -247.46,-75.14 -502.61,-64.49 -756.74,-67.66 -53.5,-0.63 -63.77,17.54 -62.9,66.4 2.84,167.98 1.05,336.04 1.05,504.02zm-680.85 711.42c-0.09,-581.91 0.75,-1163.81 -1.37,-1745.6 -0.21,-55.96 13.11,-73.38 70.95,-72.21 418.07,8.02 836.67,-13.11 1254.61,16.46 289.6,20.38 566.08,85.28 810.28,251.13 243.02,165.13 401.81,391.04 440.33,683.18 60.39,458.91 -152.99,842.44 -565.45,1054.77 -266.34,137.12 -552.55,191.28 -847.62,206.9 -133.77,7.18 -268.38,7.72 -402.24,2.54 -69.16,-2.75 -80.65,20.8 -80.23,83.91 2.96,422.82 0.63,845.65 2.75,1268.35 0.3,52.7 -12.26,69.79 -67.15,68.83 -184.1,-3.47 -368.33,-3.38 -552.46,0 -52.88,0.96 -63.56,-16.37 -63.44,-65.87 1.67,-584.12 1.04,-1168.24 1.04,-1752.39z"/>
     <path class="fil4" d="M74345.25 2113.1c-111.08,-98.4 -213.16,-181.8 -329.3,-244.82 -494.59,-268.89 -997.01,-267.96 -1471.04,24.06 -355.76,219.17 -542.41,563.35 -551.08,993.86 -8.44,416.36 124.79,766.87 456.81,1029.41 270.38,213.88 584.25,285.17 921.75,265.54 385.03,-22.51 712.51,-184.35 1004.61,-427.17 21.04,-17.41 41.72,-35.16 62.73,-52.46 3.38,-2.75 7.81,-4.33 21.63,-11.61 0,39.06 1.71,73.47 -0.3,107.8 -11.61,197.21 -25.01,394.39 -35.49,591.6 -1.79,33.49 -12.87,52.58 -41.48,70.21 -742.49,454.81 -1762.09,400.76 -2434.5,-139.88 -470.52,-378.26 -677.88,-878.47 -652.95,-1479.46 37.47,-902.66 763.08,-1551.06 1568.06,-1678.39 514.03,-81.4 1004.61,-14.58 1465.77,238.89 67.78,37.29 84.24,75.72 74.21,149.6 -24.6,181.38 -39.17,364.14 -59.43,562.82z"/>
     <path class="fil4" d="M60965.94 3899.6c68.74,35.14 138.41,71.8 208.92,106.63 250.4,123.29 509.26,218.64 792,230.88 179.8,7.81 353.88,-12.99 512.87,-106.63 257.48,-151.81 305.93,-471.6 103.13,-691.91 -115.58,-125.62 -262.12,-208.94 -409.39,-290.63 -222.35,-123.33 -453.56,-231.09 -663.22,-376.8 -102.91,-71.58 -202.05,-148.1 -281.95,-245.33 -340.16,-413.01 -222.56,-984.68 255.56,-1255.78 180,-101.99 374.67,-150.86 578.53,-163.97 363.93,-23.22 715.25,34 1053.51,172.62 48.9,20.05 70.2,41.17 65.77,98.27 -10.86,138.11 -15.32,276.73 -17.32,415.22 -0.84,53.84 -15.62,55.43 -58.81,34.96 -205.53,-97.77 -415.94,-182.64 -641.22,-223.82 -186.44,-33.99 -371.2,-33.78 -548.24,44.35 -262.57,115.7 -310.9,410.76 -100.19,606.39 114.43,106.21 250.63,180 387.45,251.8 231.2,121.41 467.8,233.3 680.84,386.7 114.65,82.56 221.9,173.15 310.69,284.29 303,379.54 265.71,982.13 -187.69,1322.09 -222.77,167.02 -478.46,238.15 -749.59,258.02 -406.24,29.66 -802.34,-22.18 -1184.18,-170.1 -41.81,-16.13 -60.6,-38 -64.4,-82.65 -15.92,-187.49 -34.93,-374.77 -52.34,-562.07 -1.17,-12.78 -5.39,-26.82 9.27,-42.53z"/>
     <path class="fil4" d="M70809.39 4763.59c-224.65,0 -449.22,-0.74 -673.75,0.63 -41.09,0.3 -46.36,-30.19 -58.6,-55.42 -195.74,-402.03 -391.16,-804.05 -586.36,-1206.16 -176.42,-363.47 -352.5,-727.07 -528.91,-1090.46 -12.87,-26.4 -27.45,-51.92 -41.9,-79.16 -27.35,12.66 -31.36,38.85 -41.6,59.44 -381.22,765.71 -762.54,1531.41 -1141.76,2298.05 -26.18,52.91 -53.63,76.88 -116.98,75.3 -199.63,-5.18 -399.48,-1.92 -611.06,-1.92 51.96,-100.19 99.03,-192.12 147.18,-283.54 532.92,-1012.04 1065.96,-2023.82 1599,-3035.74 46.53,-88.34 92.89,-176.83 139.87,-265.08 11.31,-21.22 16.67,-47.94 49.41,-49.62 36.75,-1.88 43.72,27.15 55.63,50.58 320,629.19 639.88,1258.5 959.67,1887.93 275.64,542.43 551.17,1084.87 826.4,1627.48 10.02,19.63 26.06,37.5 23.76,67.69z"/>
     <path class="fil5" d="M74161.15 5751.21c68.08,1.88 135.95,4.93 200.47,31.03 34.62,14.04 66.61,31.87 83.61,65.87 7.18,14.36 24.6,35.37 6.98,48.99 -17.66,13.73 -49.83,17.32 -61.68,-3.06 -45.07,-77.71 -122.46,-68.53 -192.66,-77.09 -52.17,-6.31 -104.92,-1.25 -156.04,10.15 -43.81,9.81 -97.56,18.79 -95.01,78.23 2.42,55.42 54.58,62.3 96.72,67.57 65.24,8.35 131.31,11.19 197.09,14.87 48.03,2.75 95.01,10.06 139.45,27.98 47.62,19.33 79.19,53 82.57,106.54 3.26,54.16 -24.51,94.68 -70.54,114.22 -153.28,64.82 -308.35,65.66 -461.54,-2.54 -27.24,-12.15 -48.66,-33.58 -60.06,-62.6 -6.47,-16.58 -19.01,-37.26 1.04,-48.45 18.47,-10.36 41.27,-13.83 60.81,8.02 80.11,90.04 309.11,120.36 413.94,55.96 22.29,-13.74 39.8,-31.48 38.21,-59.85 -1.67,-31.49 -22.05,-48.78 -50.24,-57.34 -72.63,-22.18 -148.02,-21.97 -222.77,-25.14 -54.88,-2.21 -108.63,-8.53 -159.83,-28.82 -50.55,-20.05 -83.92,-55.3 -85.08,-112.01 -1.17,-53.93 30.73,-88.04 75.92,-111.68 68.62,-36.01 143.55,-39.18 218.64,-40.85z"/>
     <path class="fil5" d="M73454.96 5822.73c-47.2,0 -85.74,0.66 -124.17,-0.21 -24.6,-0.51 -48.57,0.54 -42.34,34.21 10.23,56.17 -33.37,150.43 23.76,162.58 100.28,21.34 211.37,22.27 314.82,-12.24 41.39,-13.82 70,-40.76 69.67,-89.21 -0.42,-50.57 -34.42,-70.41 -75.27,-83.52 -57.33,-18.25 -116.65,-9.4 -166.47,-11.61zm319.87 447.12c-60.81,19.01 -96.18,-1.79 -120.69,-46.98 -55.3,-101.99 -131.43,-153.52 -256.64,-137.78 -108.21,13.5 -107.35,2.84 -111.27,113.48 -0.95,25.88 30.41,73.17 -31.66,77.72 -29.45,2.09 -45.81,-3.8 -45.4,-39.72 1.8,-147.68 0.96,-295.36 0.84,-443.08 0,-19 -0.42,-38.09 26.52,-36.96 129.1,5.39 259.07,-13.91 387.33,11.73 69.66,13.83 131.55,40.97 145.17,122.04 13.7,81.82 -11.61,127.22 -105.49,175.25 -30.08,15.41 -22.89,25.35 -8.86,43.72 20.8,27.02 41.06,54.38 61.44,81.61 18.7,25.11 37.38,50.33 58.71,78.97z"/>
     <path class="fil5" d="M61463.69 5822.73c-49.71,0 -90.59,-0.33 -131.42,0.21 -14.67,0.21 -36.1,-5.93 -36.63,18.04 -1.38,56.68 -0.33,113.39 0.41,170.07 0.12,10.69 8.77,15.62 18.68,15.21 108.11,-4.52 218,16.69 323.79,-21.22 42.13,-15.08 69.36,-44.11 66.31,-91.84 -2.87,-45.49 -35.07,-65.78 -74.12,-78.44 -57.55,-18.79 -117.07,-9.52 -167.02,-12.03zm178.33 257.81c48.33,65.12 92.47,124.67 139.45,188 -52.28,18.07 -90.7,8.34 -114.22,-38.64 -59.89,-120.03 -154.36,-158.76 -286.75,-145.35 -67.24,6.73 -99.32,16.88 -86.99,88.97 3.71,22.09 -0.84,45.4 0.96,67.9 2,27.03 -8.98,35.88 -35.25,35.17 -23.23,-0.54 -38.55,-2.55 -38.34,-32.2 0.96,-151.94 0.63,-303.84 0.33,-455.87 -0.12,-22.08 6.97,-33.15 31.03,-32.32 120.03,4.13 240.9,-11.61 359.88,7.93 111.27,18.17 164.38,68.51 171.24,145.8 6.13,68.5 -38.1,123.51 -141.34,170.61z"/>
     <path class="fil5" d="M71213.27 6275.66c-77.15,0 -154.45,-1.5 -231.6,0.72 -32.95,0.95 -42.25,-9.49 -41.92,-42.02 1.67,-145.38 1.58,-290.64 0.12,-435.9 -0.33,-31.45 6.94,-43.27 40.93,-42.97 156.7,1.79 313.45,0.95 470.11,0.62 21.88,-0.08 38.54,-0.71 38.45,30.62 -0.12,32.62 -15.2,36.54 -41.92,36.33 -122.58,-0.84 -245.45,4.43 -367.7,-2.22 -67.45,-3.8 -69.04,25.23 -72,78.02 -3.59,63.03 23.34,69.04 74.75,67.36 102.08,-3.5 204.37,-1.16 306.56,-1.07 24.3,0.12 51.12,-6.02 51.54,34.2 0.41,44.47 -31.25,30.41 -52.49,30.62 -106.72,1.16 -213.56,2.12 -320.18,-0.3 -41.09,-0.84 -59.88,5.68 -59.43,54.25 1.13,128.38 -1.5,128.38 128.56,128.38 102.19,0 204.39,0 306.59,0.09 22.38,0 44.86,-4.63 45.72,32 0.72,37.91 -22.8,31.15 -44.47,31.15 -77.14,0.21 -154.44,0.12 -231.62,0.12z"/>
     <path class="fil5" d="M70110.68 6195.7c0,-137.87 -0.42,-259.49 0.33,-381.02 0.09,-26.39 -13.41,-59.64 38.21,-59.64 51.21,0.12 38.73,32.83 38.85,59.64 0.75,131.76 1.26,263.62 -0.42,395.38 -0.33,21.73 16.88,57.01 -17.42,63.53 -33.28,6.26 -69.58,11.64 -99.98,-22.56 -104.2,-117.19 -211.37,-231.54 -317.57,-346.93 -18.14,-19.84 -36.63,-39.38 -55.22,-59.31 -26.69,18.58 -15.83,43.48 -16.04,63.95 -1.25,106.86 -0.74,213.7 -0.21,320.53 0.12,26.07 2.64,48.87 -36.95,47.91 -38.1,-1.04 -30.41,-25.22 -30.5,-46.44 -0.21,-134.07 -1.17,-268.26 0.84,-402.23 0.42,-23.74 -19,-60.69 17.09,-70.09 33.9,-8.86 69.07,-5.6 98.18,27.77 70.21,80.44 144.63,157.2 217.5,235.22 50.34,53.92 100.91,107.76 163.31,174.29z"/>
     <path class="fil5" d="M68924.75 6197.37c0,-141.76 -0.51,-263.71 0.45,-385.74 0.21,-23.76 -13.65,-55.34 34.29,-56.47 51.41,-1.17 39.17,32.29 39.26,59.1 0.66,131.76 1.17,263.5 -0.5,395.26 -0.21,22.06 16.36,57.43 -16.91,64.31 -30.5,6.32 -64.7,10.96 -93.52,-21.25 -99.68,-111.89 -202.6,-220.85 -304.38,-330.95 -22.89,-24.8 -45.69,-49.82 -70.29,-76.64 -22.6,24.39 -12.06,50.34 -12.36,73.35 -1.38,106.75 -1.59,213.49 -0.12,320.33 0.42,29.87 -9.28,38.72 -38.52,38.42 -28.1,-0.21 -33.78,-11.73 -33.69,-36.63 0.75,-149.92 0.21,-299.82 0.42,-449.84 0.12,-14.78 -4.73,-34.42 20.58,-33.91 32.95,0.66 64.53,-5.8 92.92,25.98 102.83,115.18 209.25,227.11 314.29,340.38 18.25,19.75 36.42,39.68 68.08,74.3z"/>
     <path class="fil5" d="M71835.7 5822.7c-40.76,0 -81.61,1.68 -122.25,-0.54 -33.46,-1.79 -48.36,12.99 -41.39,43.69 12.15,53.12 -36,141.49 26.61,154.57 96.6,20.26 203.13,18.91 302.79,-9.19 45.18,-12.78 83.19,-40.73 81.07,-95.52 -2.01,-52.28 -40.97,-72.66 -84.46,-84.06 -53.2,-14.04 -108.12,-7.81 -162.37,-8.95zm322.84 446.76c-55.75,18.05 -89.51,1.38 -118.24,-42.64 -55.75,-85.83 -111.05,-160.79 -240.39,-142.75 -125.42,17.54 -126.47,3.8 -129.22,131.35 -0.51,22.05 19.21,58.47 -28.82,61.02 -27.86,1.37 -45.91,-0.12 -45.4,-37.8 2.12,-147.48 0.96,-294.98 0.84,-442.45 0,-21.1 -2.43,-41.48 29.56,-40.02 126.59,6.14 254.22,-13.28 380.06,11.95 89.96,17.92 141.16,63.11 150.02,126.67 10.36,74.55 -20.17,127.96 -106.3,169.65 -31.9,15.41 -27.44,24.93 -10.14,47.19 40.13,51.21 78.02,104.12 118.03,157.83z"/>
     <path class="fil5" d="M62193.64 6217.6c127.19,-0.21 207.75,-50.03 234.98,-145.26 33.49,-116.98 -22.89,-216 -139.46,-244.61 -163.63,-40.31 -311.31,17.83 -337.08,133.14 -2.01,8.77 -2.12,17.95 -2.63,27.02 -9.94,148.1 77.26,230.04 244.19,229.71zm10.24 -467.68c28.19,3.8 67.24,5.18 104.29,14.48 138.08,34.51 208.82,120.13 208.4,247.55 -0.54,132.06 -73.26,222.98 -208.49,257.06 -75.92,19.13 -153.19,19.13 -229.2,1.38 -143.26,-33.25 -216.13,-133.11 -209.16,-282.5 5.6,-120.99 98.31,-212.41 235.64,-231 29.15,-3.89 58.8,-4.22 98.52,-6.97z"/>
     <path class="fil5" d="M72779.98 6217.72c165.76,0.63 262.78,-92.47 245.69,-235.75 -12.15,-101.33 -93.76,-159.72 -231,-165.32 -140.53,-5.71 -237.13,51.3 -255.81,151.07 -28.07,149.18 68.62,249.37 241.12,250zm-0.42 -466.72c40.34,4.52 80.98,2.63 121.11,13.7 135.86,37.71 199.22,114.02 199.84,244.74 0.72,137.87 -65.03,223.69 -201.64,258.95 -77.92,20.17 -157.2,20.17 -235.21,0.74 -138.53,-34.53 -215.05,-136.73 -206.4,-271.63 8.65,-133.77 98.27,-223.82 240.9,-241.03 26.93,-3.17 54.17,-3.68 81.4,-5.47z"/>
     <path class="fil5" d="M65372.76 6217.51c7.69,-0.42 25.94,-0.42 43.9,-2.84 123.74,-17 194.37,-92.38 193.08,-205.35 -1.14,-107.59 -66.29,-170.82 -192.24,-188.77 -52.55,-7.49 -104.51,-4.31 -155.41,8.14 -89.63,21.84 -142.42,86.66 -143.88,172.7 -2.55,138.52 85.94,216.87 254.55,216.12zm-9.61 -466.84c44.95,4.43 89.93,4.43 134.16,17.83 139.78,42.14 187.51,125.96 188.23,241.24 0.66,119.19 -50.03,214.62 -190.96,254.64 -80.56,22.92 -161.54,24.51 -241.89,6.85 -151.78,-33.13 -217.56,-131.53 -206.78,-301.38 7.06,-111.39 102.28,-197.96 235.84,-213.5 27.02,-3.14 54.26,-3.8 81.4,-5.68z"/>
     <path class="fil5" d="M66826.14 5751.81c73.37,0.65 144.54,10.26 210.73,44.67 39.9,20.8 70.75,50.04 84.25,93.52 5.5,17.63 16.45,44.35 -14.88,48.03 -17.53,2.13 -45.4,17 -53.95,-20.47 -10.15,-44.14 -45.61,-66.49 -86.04,-78.85 -95.64,-29.45 -192.15,-32.62 -287.59,1.05 -73.68,25.97 -114.11,79.39 -119.4,157.74 -5.6,84.87 24.3,154.32 103.9,189.37 101.87,44.89 207.75,42.34 311.65,3.17 37.55,-14.04 68.2,-41.18 76.31,-80.86 8.56,-42.14 38.75,-27.35 57.64,-23.55 28.1,5.59 18.07,32.2 12.27,50.15 -18.92,58.39 -61.68,93.43 -117.4,114.56 -98.52,37.35 -200.6,40.31 -301.63,19.84 -150.97,-30.73 -229.62,-133.98 -221.39,-279.24 6.97,-122.57 108.42,-218.01 250.3,-234.17 31.57,-3.47 63.47,-3.38 95.23,-4.96z"/>
     <path class="fil5" d="M67814.41 6020.9c0,70.41 -0.21,140.83 0.21,211.25 0.09,23.85 1.46,44.02 -33.58,44.97 -35.16,0.93 -34.32,-18.28 -34,-42.55 0.75,-52.25 -1.25,-104.62 0.84,-156.78 1.38,-33.25 -5.68,-48.87 -44.11,-48.15 -115.81,2.33 -231.83,2.54 -347.65,-0.09 -38.96,-0.84 -44.68,14.99 -43.39,47.82 2.22,54.37 -0.33,108.96 1.05,163.54 0.54,24.6 -4.43,37.26 -33.16,35.88 -25.65,-1.16 -42.31,-2.42 -42.02,-35.79 1.5,-149.9 1.38,-299.91 0,-449.84 -0.29,-33.58 16.91,-34.21 42.23,-35.46 29.24,-1.59 34.95,12.15 32.62,36.3 -0.72,6.76 -0.09,13.64 -0.09,20.5 1.47,151.39 1.47,151.39 156.24,151.27 77.27,0 154.57,-1.47 231.72,0.75 35.16,0.96 48.99,-9.4 46.68,-45.94 -2.87,-42.97 0,-86.24 -0.63,-129.43 -0.33,-20.8 2.43,-34.5 29.03,-33.45 23.94,0.95 38.64,4.96 38.31,33.45 -1.05,77.3 -0.3,154.45 -0.3,231.75z"/>
     <path class="fil5" d="M63433.77 6110.8c-54.05,-101.78 -101.99,-192.04 -153.49,-288.97 -47.73,89.54 -92.08,172.7 -136.52,255.81 -16.46,30.61 0.84,33.46 25.55,33.37 83.5,-0.54 167.02,-0.21 264.46,-0.21zm160.67 158.54c-54.04,18.5 -85.5,1.17 -100.4,-45.18 -12.78,-39.6 -39.38,-47.92 -78.11,-46.87 -90.79,2.55 -181.8,2.75 -272.59,-0.09 -38.96,-1.17 -61.65,9.91 -78.56,46.45 -25.31,55 -28.07,53.71 -97.73,46.86 86.99,-165.76 172.28,-330.32 260.11,-493.54 20.05,-37.37 89,-31.69 110.34,8.23 85.62,159.42 169.86,319.55 256.94,484.14z"/>
     <path class="fil5" d="M60559.46 5821.11c-54.5,103.04 -101.57,191.92 -151.6,286.51l302.67 0c-49.74,-94.26 -97.23,-184.43 -151.07,-286.51zm313.65 448.14c-55.96,19.22 -85.2,-1.04 -100.4,-47.19 -11.61,-35.37 -35.16,-46.03 -72.63,-44.86 -90.79,2.96 -181.8,3.17 -272.5,0 -41.69,-1.46 -66.5,9.94 -84.66,49.08 -25.02,53.96 -27.98,52.58 -96.49,42.23 86.13,-163.22 170.91,-325.57 257.91,-486.9 22.92,-42.52 90.04,-39.05 113.71,5.18 85.29,159.53 169.24,319.79 255.06,482.46z"/>
     <path class="fil5" d="M66373.63 5934.05c0,18.17 -0.84,36.42 0.21,54.47 6.55,108.54 -13.29,207.89 -122.46,257.39 -124.67,56.47 -251.8,55.75 -370.03,-20.68 -68.29,-44.23 -91.01,-116.56 -94.6,-193.32 -3.56,-77.06 0.12,-154.45 -1.26,-231.62 -0.53,-29.24 3.06,-45.61 39.39,-45.19 33.87,0.45 42.01,12.27 41.26,43.72 -1.88,77.18 -1.25,154.45 -0.41,231.63 1.07,96.6 49.52,156.15 144.21,179.16 181.38,44.02 294.65,-43.51 294.98,-227.82 0.09,-61.35 0.72,-122.7 -0.33,-183.93 -0.42,-25.76 2.12,-42.1 35.49,-42.64 35.25,-0.63 34.21,18.16 33.76,42.55 -0.84,45.4 -0.21,90.89 -0.21,136.28z"/>
     <path class="fil5" d="M70572.26 5756.26c72.63,0 145.26,0.12 217.89,0 22.59,-0.09 44.98,-4.51 43.3,32.41 -1.5,34.63 -22.18,33.58 -45.85,33.49 -47.61,-0.21 -95.43,2.01 -142.92,-0.87 -35.7,-2 -46.78,9.73 -46.15,45.73 2.01,120.24 -0.09,240.48 1.29,360.73 0.42,32.2 -3.59,49.61 -43.1,49.31 -39.38,-0.41 -36.62,-22.05 -36.5,-48.15 0.41,-118.02 -1.38,-236.05 1.04,-353.96 0.84,-40.04 -7.3,-57.97 -51.62,-53.87 -45.1,4.13 -90.79,-0.3 -136.1,1.29 -25.95,0.93 -36.09,-7.72 -37.26,-34.32 -1.17,-29.87 14.04,-32.41 37.71,-32.08 79.36,0.83 158.87,0.29 238.27,0.29z"/>
     <path class="fil5" d="M62799.91 6043.76c60.18,-85.74 115.51,-165.13 171.36,-243.98 33.15,-46.87 33.57,-46.57 107.04,-36.3 -56.05,80.11 -107.46,159.83 -165.43,234.47 -53.42,68.71 -90.59,139.12 -75.26,229.62 3.8,22.68 8.94,48.75 -33.28,49.49 -44.23,0.84 -42.65,-24.59 -38.64,-51.83 12.24,-82.23 -17.62,-147.89 -67.66,-211.87 -62.51,-79.61 -116.98,-165.43 -175.78,-249.88 57.13,-20.29 87.53,1.13 115.27,45.15 49.32,78.26 104.86,152.57 162.38,235.13z"/>
     <path class="fil5" d="M63682.93 6008.99c0,-70.42 0.3,-140.83 -0.24,-211.25 -0.09,-23.88 -2.09,-42.67 33.58,-42.76 35.7,-0.12 40.01,14.66 39.59,44.56 -1.37,113.48 3.8,227.28 -2.42,340.55 -3.47,64.1 19.75,76.14 76.85,73.38 93.01,-4.34 186.35,-1.26 279.45,-1.05 24.71,0 51.53,-4.63 50.78,35.38 -0.63,40.01 -29.45,27.11 -48.57,27.32 -127.22,0.96 -254.52,-1.05 -381.62,1.5 -39.59,0.71 -49.73,-11.94 -48.27,-49.62 2.88,-72.54 0.87,-145.38 0.87,-218.01z"/>
     <path class="fil5" d="M64730.7 5756.26c75.05,0 150.02,0.12 225.07,-0.09 20.71,0 39.92,-3.38 39.8,29.45 -0.09,32.2 -14.87,37.59 -41.9,36.63 -40.87,-1.38 -82.14,2.84 -122.69,-1.05 -51.5,-4.96 -71.46,9.07 -69.04,65.66 4.88,113.39 1.59,227.2 1.5,340.89 -0.12,23.76 7.6,49.4 -34.33,49.1 -39.8,-0.2 -36.54,-22.29 -36.42,-48.24 0.33,-118.14 -1.79,-236.38 1.05,-354.53 1.08,-43.18 -13.08,-55.63 -54.26,-52.79 -47.49,3.18 -95.43,-0.21 -143.16,0.96 -26.4,0.63 -35.05,-9.4 -36.09,-35.79 -1.38,-32.2 17.2,-30.41 38.51,-30.29 77.3,0.3 154.69,0.09 231.96,0.09z"/>
     <path class="fil5" d="M72274.23 6008.99c-0.12,-70.12 0.21,-140.2 -0.24,-210.2 -0.21,-23.76 -2,-43.18 33.28,-43.6 34.83,-0.42 40.52,13.52 40.22,43.93 -1.17,144.63 -0.63,289.35 -0.33,433.98 0.12,23.85 1.8,43.19 -33.37,43.72 -35.04,0.63 -40.73,-13.73 -40.1,-44.02 1.68,-74.54 0.63,-149.18 0.54,-223.81z"/>
     <path class="fil5" d="M68286.52 6016.86c0,72.3 -0.45,144.63 0.21,216.93 0.21,24.6 0.21,42.26 -34.12,42.98 -36.54,0.86 -38.96,-16.25 -38.75,-44.98 0.96,-144.64 0.66,-289.27 0.21,-433.99 -0.09,-24.18 -1.35,-42.43 33.78,-42.76 36.12,-0.33 39.81,15.41 39.18,44.86 -1.59,72.21 -0.51,144.63 -0.51,216.96z"/>
     <path class="fil5" d="M69469.55 6022.57c0,68.12 0.42,136.2 -0.21,204.31 -0.21,22.8 9.81,50.03 -33.04,50.03 -37.59,0 -38.42,-18.16 -38.33,-46.23 0.95,-142.96 0.86,-286 0.12,-428.96 -0.12,-27.53 -0.21,-46.65 37.88,-46.65 42.56,-0.09 33.28,26.6 33.37,49.61 0.54,72.63 0.21,145.26 0.21,217.89z"/>
    </g>
   </g>
  </g>
 </g>
</svg>
